<svg width="499" height="98" viewBox="0 0 499 98" fill="none" xmlns="http://www.w3.org/2000/svg">
<path d="M187.449 81.7522C184.442 81.7522 181.736 81.3871 179.331 80.6569C176.925 79.8838 174.627 78.5522 172.437 76.6623C171.878 76.1898 171.449 75.6529 171.148 75.0516C170.848 74.4503 170.697 73.8489 170.697 73.2476C170.697 72.2597 171.041 71.4006 171.728 70.6704C172.458 69.8973 173.36 69.5107 174.434 69.5107C175.25 69.5107 175.98 69.7684 176.625 70.2839C178.257 71.6154 179.868 72.6248 181.457 73.312C183.089 73.9993 185.086 74.3429 187.449 74.3429C189.038 74.3429 190.498 74.1066 191.83 73.6342C193.161 73.1187 194.235 72.453 195.051 71.6369C195.867 70.7778 196.276 69.8114 196.276 68.7376C196.276 67.449 195.889 66.3537 195.116 65.4517C194.343 64.5497 193.161 63.798 191.572 63.1967C189.983 62.5524 187.964 62.0585 185.516 61.7148C183.196 61.3712 181.156 60.8558 179.395 60.1686C177.634 59.4384 176.152 58.5364 174.95 57.4625C173.79 56.3458 172.909 55.0572 172.308 53.5968C171.707 52.0935 171.406 50.4183 171.406 48.5714C171.406 45.7795 172.115 43.3956 173.532 41.4198C174.993 39.444 176.947 37.9406 179.395 36.9098C181.843 35.8789 184.549 35.3635 187.513 35.3635C190.305 35.3635 192.882 35.793 195.245 36.652C197.65 37.4681 199.604 38.5205 201.108 39.8091C202.353 40.797 202.976 41.9352 202.976 43.2238C202.976 44.1687 202.611 45.0278 201.881 45.8009C201.151 46.5741 200.292 46.9606 199.304 46.9606C198.659 46.9606 198.08 46.7674 197.564 46.3808C196.877 45.7795 195.953 45.2211 194.794 44.7056C193.634 44.1473 192.41 43.6963 191.121 43.3526C189.833 42.9661 188.63 42.7728 187.513 42.7728C185.666 42.7728 184.098 43.009 182.81 43.4815C181.564 43.954 180.619 44.5983 179.975 45.4144C179.331 46.2305 179.009 47.1754 179.009 48.2492C179.009 49.5378 179.374 50.6116 180.104 51.4707C180.877 52.2868 181.972 52.9525 183.39 53.468C184.807 53.9404 186.504 54.37 188.48 54.7565C191.057 55.229 193.312 55.7874 195.245 56.4317C197.22 57.076 198.853 57.9135 200.141 58.9444C201.43 59.9323 202.396 61.1994 203.041 62.7457C203.685 64.249 204.007 66.096 204.007 68.2866C204.007 71.0785 203.234 73.4838 201.688 75.5026C200.141 77.5214 198.101 79.0677 195.567 80.1415C193.076 81.2153 190.37 81.7522 187.449 81.7522ZM244.19 63.9054C244.19 67.4275 243.395 70.5416 241.806 73.2476C240.26 75.9107 238.155 77.9939 235.492 79.4972C232.872 81.0005 229.93 81.7522 226.665 81.7522C223.401 81.7522 220.437 81.0005 217.774 79.4972C215.154 77.9939 213.049 75.9107 211.46 73.2476C209.914 70.5416 209.141 67.4275 209.141 63.9054C209.141 60.3833 209.914 57.2907 211.46 54.6277C213.049 51.9217 215.154 49.817 217.774 48.3137C220.437 46.7674 223.401 45.9942 226.665 45.9942C229.93 45.9942 232.872 46.7674 235.492 48.3137C238.155 49.817 240.26 51.9217 241.806 54.6277C243.395 57.2907 244.19 60.3833 244.19 63.9054ZM236.458 63.9054C236.458 61.7148 236.007 59.8249 235.105 58.2357C234.246 56.6035 233.065 55.3364 231.562 54.4344C230.101 53.5324 228.469 53.0814 226.665 53.0814C224.861 53.0814 223.208 53.5324 221.704 54.4344C220.244 55.3364 219.063 56.6035 218.161 58.2357C217.302 59.8249 216.872 61.7148 216.872 63.9054C216.872 66.053 217.302 67.943 218.161 69.5752C219.063 71.1644 220.244 72.41 221.704 73.312C223.208 74.214 224.861 74.665 226.665 74.665C228.469 74.665 230.101 74.214 231.562 73.312C233.065 72.41 234.246 71.1644 235.105 69.5752C236.007 67.943 236.458 66.053 236.458 63.9054ZM259.332 77.1778C259.332 78.2945 258.946 79.2395 258.172 80.0126C257.442 80.7428 256.519 81.1079 255.402 81.1079C254.328 81.1079 253.426 80.7428 252.696 80.0126C251.966 79.2395 251.601 78.2945 251.601 77.1778V37.3608C251.601 36.244 251.966 35.3205 252.696 34.5903C253.469 33.8172 254.414 33.4306 255.531 33.4306C256.648 33.4306 257.55 33.8172 258.237 34.5903C258.967 35.3205 259.332 36.244 259.332 37.3608V77.1778ZM293.586 46.6385C294.702 46.6385 295.626 47.0251 296.356 47.7982C297.086 48.5284 297.451 49.4519 297.451 50.5687V66.9336C297.451 71.4865 296.184 75.0946 293.65 77.7576C291.116 80.4207 287.465 81.7522 282.697 81.7522C277.929 81.7522 274.278 80.4207 271.744 77.7576C269.253 75.0946 268.007 71.4865 268.007 66.9336V50.5687C268.007 49.4519 268.372 48.5284 269.103 47.7982C269.833 47.0251 270.756 46.6385 271.873 46.6385C272.99 46.6385 273.913 47.0251 274.644 47.7982C275.374 48.5284 275.739 49.4519 275.739 50.5687V66.9336C275.739 69.5537 276.319 71.508 277.478 72.7966C278.638 74.0422 280.378 74.665 282.697 74.665C285.06 74.665 286.821 74.0422 287.98 72.7966C289.14 71.508 289.72 69.5537 289.72 66.9336V50.5687C289.72 49.4519 290.085 48.5284 290.815 47.7982C291.545 47.0251 292.469 46.6385 293.586 46.6385ZM321.156 45.9942C323.604 45.9942 325.73 46.2519 327.534 46.7674C329.381 47.2828 330.798 48.013 331.786 48.9579C332.817 49.8599 333.333 50.9552 333.333 52.2438C333.333 53.1029 333.075 53.919 332.56 54.6921C332.044 55.4223 331.292 55.7874 330.305 55.7874C329.617 55.7874 329.037 55.7015 328.565 55.5297C328.135 55.3149 327.749 55.0572 327.405 54.7565C327.062 54.4559 326.654 54.1767 326.181 53.919C325.752 53.6612 325.086 53.468 324.184 53.3391C323.325 53.1673 322.68 53.0814 322.251 53.0814C320.06 53.0814 318.192 53.5539 316.646 54.4988C315.142 55.4438 313.983 56.7323 313.166 58.3645C312.35 59.9538 311.942 61.8007 311.942 63.9054C311.942 65.9671 312.35 67.8141 313.166 69.4463C314.026 71.0355 315.185 72.3026 316.646 73.2476C318.149 74.1926 319.867 74.665 321.8 74.665C322.874 74.665 323.797 74.6006 324.57 74.4717C325.343 74.3429 325.988 74.1496 326.503 73.8919C327.105 73.5483 327.641 73.1832 328.114 72.7966C328.586 72.41 329.295 72.2167 330.24 72.2167C331.357 72.2167 332.216 72.5818 332.817 73.312C333.419 73.9993 333.719 74.8583 333.719 75.8892C333.719 76.963 333.118 77.9509 331.915 78.8529C330.713 79.712 329.123 80.4207 327.148 80.9791C325.215 81.4945 323.11 81.7522 320.833 81.7522C317.44 81.7522 314.498 80.9791 312.007 79.4328C309.515 77.8435 307.583 75.6959 306.208 72.9899C304.877 70.2839 304.211 67.2557 304.211 63.9054C304.211 60.3833 304.92 57.2907 306.337 54.6277C307.797 51.9217 309.795 49.817 312.329 48.3137C314.906 46.7674 317.848 45.9942 321.156 45.9942ZM346.575 77.1778C346.575 78.2945 346.21 79.2395 345.479 80.0126C344.749 80.7428 343.826 81.1079 342.709 81.1079C341.592 81.1079 340.669 80.7428 339.939 80.0126C339.208 79.2395 338.843 78.2945 338.843 77.1778V50.5687C338.843 49.4519 339.208 48.5284 339.939 47.7982C340.669 47.0251 341.592 46.6385 342.709 46.6385C343.826 46.6385 344.749 47.0251 345.479 47.7982C346.21 48.5284 346.575 49.4519 346.575 50.5687V77.1778ZM342.645 42.4506C341.184 42.4506 340.153 42.2144 339.552 41.7419C338.951 41.2694 338.65 40.4319 338.65 39.2292V38.005C338.65 36.7594 338.972 35.9218 339.616 35.4923C340.304 35.0198 341.335 34.7836 342.709 34.7836C344.212 34.7836 345.265 35.0198 345.866 35.4923C346.467 35.9648 346.768 36.8024 346.768 38.005V39.2292C346.768 40.4748 346.446 41.3339 345.802 41.8063C345.157 42.2359 344.105 42.4506 342.645 42.4506ZM387.959 63.9054C387.959 67.4275 387.165 70.5416 385.575 73.2476C384.029 75.9107 381.924 77.9939 379.261 79.4972C376.641 81.0005 373.699 81.7522 370.435 81.7522C367.17 81.7522 364.206 81.0005 361.543 79.4972C358.923 77.9939 356.819 75.9107 355.229 73.2476C353.683 70.5416 352.91 67.4275 352.91 63.9054C352.91 60.3833 353.683 57.2907 355.229 54.6277C356.819 51.9217 358.923 49.817 361.543 48.3137C364.206 46.7674 367.17 45.9942 370.435 45.9942C373.699 45.9942 376.641 46.7674 379.261 48.3137C381.924 49.817 384.029 51.9217 385.575 54.6277C387.165 57.2907 387.959 60.3833 387.959 63.9054ZM380.228 63.9054C380.228 61.7148 379.777 59.8249 378.875 58.2357C378.016 56.6035 376.835 55.3364 375.331 54.4344C373.871 53.5324 372.239 53.0814 370.435 53.0814C368.631 53.0814 366.977 53.5324 365.474 54.4344C364.013 55.3364 362.832 56.6035 361.93 58.2357C361.071 59.8249 360.641 61.7148 360.641 63.9054C360.641 66.053 361.071 67.943 361.93 69.5752C362.832 71.1644 364.013 72.41 365.474 73.312C366.977 74.214 368.631 74.665 370.435 74.665C372.239 74.665 373.871 74.214 375.331 73.312C376.835 72.41 378.016 71.1644 378.875 69.5752C379.777 67.943 380.228 66.053 380.228 63.9054ZM413.152 45.9942C416.331 45.9942 418.736 46.66 420.368 47.9915C422.044 49.323 423.182 51.1056 423.783 53.3391C424.427 55.5297 424.75 57.978 424.75 60.684V77.1778C424.75 78.2945 424.384 79.2395 423.654 80.0126C422.924 80.7428 422.001 81.1079 420.884 81.1079C419.767 81.1079 418.844 80.7428 418.113 80.0126C417.383 79.2395 417.018 78.2945 417.018 77.1778V60.684C417.018 59.2665 416.825 57.9994 416.438 56.8827C416.095 55.723 415.45 54.7995 414.505 54.1122C413.56 53.425 412.207 53.0814 410.446 53.0814C408.728 53.0814 407.268 53.425 406.065 54.1122C404.905 54.7995 404.003 55.723 403.359 56.8827C402.758 57.9994 402.457 59.2665 402.457 60.684V77.1778C402.457 78.2945 402.092 79.2395 401.362 80.0126C400.632 80.7428 399.708 81.1079 398.591 81.1079C397.475 81.1079 396.551 80.7428 395.821 80.0126C395.091 79.2395 394.726 78.2945 394.726 77.1778V50.5687C394.726 49.4519 395.091 48.5284 395.821 47.7982C396.551 47.0251 397.475 46.6385 398.591 46.6385C399.708 46.6385 400.632 47.0251 401.362 47.7982C402.092 48.5284 402.457 49.4519 402.457 50.5687V53.3391L401.491 53.1458C401.877 52.4156 402.436 51.6425 403.166 50.8264C403.896 49.9673 404.755 49.1727 405.743 48.4425C406.731 47.7123 407.848 47.1325 409.093 46.7029C410.339 46.2305 411.692 45.9942 413.152 45.9942ZM449.342 81.7522C445.691 81.7522 442.513 81.0005 439.807 79.4972C437.144 77.9509 435.082 75.8677 433.622 73.2476C432.204 70.6275 431.495 67.6638 431.495 64.3564C431.495 60.4907 432.269 57.2048 433.815 54.4988C435.404 51.7499 437.466 49.6452 440 48.1848C442.534 46.7244 445.219 45.9942 448.054 45.9942C450.244 45.9942 452.306 46.4452 454.239 47.3472C456.215 48.2492 457.954 49.4948 459.458 51.0841C460.961 52.6304 462.142 54.4344 463.001 56.4961C463.903 58.5578 464.354 60.7484 464.354 63.0678C464.311 64.0987 463.903 64.9363 463.13 65.5806C462.357 66.2249 461.455 66.547 460.424 66.547H435.812L433.879 60.1041H457.525L456.107 61.3927V59.6531C456.021 58.4075 455.57 57.2907 454.754 56.3028C453.981 55.3149 452.993 54.5418 451.791 53.9834C450.631 53.382 449.385 53.0814 448.054 53.0814C446.765 53.0814 445.562 53.2532 444.446 53.5968C443.329 53.9404 442.362 54.5203 441.546 55.3364C440.73 56.1525 440.086 57.2478 439.613 58.6223C439.141 59.9967 438.905 61.7363 438.905 63.841C438.905 66.1604 439.377 68.1362 440.322 69.7684C441.31 71.3577 442.556 72.5818 444.059 73.4409C445.605 74.257 447.238 74.665 448.956 74.665C450.545 74.665 451.812 74.5362 452.757 74.2785C453.702 74.0207 454.454 73.7201 455.012 73.3765C455.613 72.9899 456.15 72.6677 456.623 72.41C457.396 72.0234 458.126 71.8302 458.813 71.8302C459.758 71.8302 460.531 72.1523 461.133 72.7966C461.777 73.4409 462.099 74.1926 462.099 75.0516C462.099 76.2113 461.498 77.2637 460.295 78.2086C459.178 79.1536 457.611 79.9911 455.592 80.7213C453.573 81.4086 451.49 81.7522 449.342 81.7522ZM469.112 75.7603C468.682 75.159 468.489 74.3858 468.532 73.4409C468.575 72.4959 469.133 71.6798 470.207 70.9926C470.894 70.5631 471.625 70.3913 472.398 70.4772C473.171 70.5201 473.922 70.9067 474.653 71.6369C475.898 72.8825 477.208 73.8489 478.583 74.5362C479.957 75.2234 481.675 75.567 483.737 75.567C484.381 75.5241 485.09 75.4382 485.863 75.3093C486.636 75.1375 487.302 74.7939 487.861 74.2785C488.462 73.7201 488.763 72.8825 488.763 71.7657C488.763 70.8208 488.44 70.0691 487.796 69.5107C487.152 68.9523 486.293 68.4799 485.219 68.0933C484.188 67.7067 483.028 67.3416 481.74 66.998C480.408 66.6114 479.034 66.1819 477.616 65.7094C476.242 65.237 474.975 64.6356 473.815 63.9054C472.655 63.1323 471.71 62.1229 470.98 60.8773C470.25 59.6316 469.885 58.0639 469.885 56.174C469.885 54.0263 470.486 52.2009 471.689 50.6975C472.892 49.1942 474.438 48.0345 476.328 47.2184C478.261 46.4023 480.279 45.9942 482.384 45.9942C483.716 45.9942 485.112 46.166 486.572 46.5096C488.032 46.8103 489.428 47.3257 490.76 48.0559C492.091 48.7432 493.208 49.6667 494.11 50.8264C494.583 51.4707 494.862 52.2438 494.948 53.1458C495.034 54.0478 494.626 54.8639 493.724 55.5941C493.079 56.1095 492.328 56.3458 491.469 56.3028C490.61 56.2169 489.901 55.9162 489.342 55.4008C488.612 54.4559 487.624 53.7042 486.379 53.1458C485.176 52.5874 483.78 52.3082 482.191 52.3082C481.547 52.3082 480.838 52.3941 480.065 52.566C479.335 52.6948 478.69 53.017 478.132 53.5324C477.573 54.0049 477.294 54.778 477.294 55.8518C477.294 56.8397 477.616 57.6344 478.261 58.2357C478.905 58.7941 479.764 59.2665 480.838 59.6531C481.955 59.9967 483.136 60.3404 484.381 60.684C485.67 61.0276 486.98 61.4357 488.312 61.9081C489.643 62.3806 490.867 63.0034 491.984 63.7766C493.101 64.5497 494.003 65.5591 494.69 66.8047C495.377 68.0074 495.721 69.5537 495.721 71.4436C495.721 73.6342 495.077 75.5026 493.788 77.0489C492.499 78.5952 490.889 79.7764 488.956 80.5925C487.023 81.3656 485.047 81.7522 483.028 81.7522C480.494 81.7522 477.96 81.3227 475.426 80.4636C472.892 79.5616 470.787 77.9939 469.112 75.7603Z" fill="#121212"/>
<path fill-rule="evenodd" clip-rule="evenodd" d="M64.9658 0.572513C43.6574 5.78038 27.8441 24.9998 27.8441 47.9127C27.8441 50.9918 28.1297 54.0042 28.6758 56.9249C27.3882 56.6654 26.056 56.5293 24.692 56.5293C13.6152 56.5293 4.63574 65.5087 4.63574 76.5855C4.63574 87.6623 13.6152 96.6417 24.692 96.6417C25.7644 96.6417 26.8172 96.5576 27.8441 96.3955V96.6447H41.4404V54.9926C41.4404 49.406 46.0415 44.8772 51.7172 44.8772C57.3929 44.8772 61.9939 49.406 61.9939 54.9926V96.6447H121.329V96.6425C121.385 96.6428 121.44 96.6429 121.495 96.6429C131.114 96.6429 139.761 92.4839 145.737 85.866H108.393C84.409 85.866 64.9658 66.4228 64.9658 42.4385V0.572513ZM154.122 65.3125C154.14 64.8736 154.149 64.4325 154.149 63.9894C154.149 46.2647 140.026 31.8385 122.42 31.3486C116.622 15.3052 102.643 3.17605 85.5193 -0.00012207V19.7808L100.516 19.8962C106.192 19.9399 110.757 24.5762 110.714 30.2517C110.67 35.9272 106.034 40.4928 100.358 40.4491L85.5193 40.335V42.4385C85.5193 55.0714 95.7604 65.3125 108.393 65.3125H154.122ZM61.6624 30.8463C61.6624 36.2526 57.2098 40.6353 51.7172 40.6353C46.2246 40.6353 41.7719 36.2526 41.7719 30.8463C41.7719 25.44 46.2246 21.0573 51.7172 21.0573C57.2098 21.0573 61.6624 25.44 61.6624 30.8463Z" fill="#4587EA"/>
<circle cx="11.2713" cy="43.7589" r="11.2713" fill="#4587EA"/>
</svg>
