<svg width="600" height="298" viewBox="0 0 600 298" fill="none" xmlns="http://www.w3.org/2000/svg">
<path d="M238.449 81.7522C235.442 81.7522 232.736 81.3871 230.331 80.6569C227.925 79.8838 225.627 78.5522 223.437 76.6623C222.878 76.1898 222.449 75.6529 222.148 75.0516C221.848 74.4503 221.697 73.8489 221.697 73.2476C221.697 72.2597 222.041 71.4006 222.728 70.6704C223.458 69.8973 224.36 69.5107 225.434 69.5107C226.25 69.5107 226.98 69.7684 227.625 70.2839C229.257 71.6154 230.868 72.6248 232.457 73.312C234.089 73.9993 236.086 74.3429 238.449 74.3429C240.038 74.3429 241.498 74.1066 242.83 73.6342C244.161 73.1187 245.235 72.453 246.051 71.6369C246.867 70.7778 247.276 69.8114 247.276 68.7376C247.276 67.449 246.889 66.3537 246.116 65.4517C245.343 64.5497 244.161 63.798 242.572 63.1967C240.983 62.5524 238.964 62.0585 236.516 61.7148C234.196 61.3712 232.156 60.8558 230.395 60.1686C228.634 59.4384 227.152 58.5364 225.95 57.4625C224.79 56.3458 223.909 55.0572 223.308 53.5968C222.707 52.0935 222.406 50.4183 222.406 48.5714C222.406 45.7795 223.115 43.3956 224.532 41.4198C225.993 39.444 227.947 37.9406 230.395 36.9098C232.843 35.8789 235.549 35.3635 238.513 35.3635C241.305 35.3635 243.882 35.793 246.245 36.652C248.65 37.4681 250.604 38.5205 252.108 39.8091C253.353 40.797 253.976 41.9352 253.976 43.2238C253.976 44.1687 253.611 45.0278 252.881 45.8009C252.151 46.5741 251.292 46.9606 250.304 46.9606C249.659 46.9606 249.08 46.7674 248.564 46.3808C247.877 45.7795 246.953 45.2211 245.794 44.7056C244.634 44.1473 243.41 43.6963 242.121 43.3526C240.833 42.9661 239.63 42.7728 238.513 42.7728C236.666 42.7728 235.098 43.009 233.81 43.4815C232.564 43.954 231.619 44.5983 230.975 45.4144C230.331 46.2305 230.009 47.1754 230.009 48.2492C230.009 49.5378 230.374 50.6116 231.104 51.4707C231.877 52.2868 232.972 52.9525 234.39 53.468C235.807 53.9404 237.504 54.37 239.48 54.7565C242.057 55.229 244.312 55.7874 246.245 56.4317C248.22 57.076 249.853 57.9135 251.141 58.9444C252.43 59.9323 253.396 61.1994 254.041 62.7457C254.685 64.249 255.007 66.096 255.007 68.2866C255.007 71.0785 254.234 73.4838 252.688 75.5026C251.141 77.5214 249.101 79.0677 246.567 80.1415C244.076 81.2153 241.37 81.7522 238.449 81.7522ZM295.19 63.9054C295.19 67.4275 294.395 70.5416 292.806 73.2476C291.26 75.9107 289.155 77.9939 286.492 79.4972C283.872 81.0005 280.93 81.7522 277.665 81.7522C274.401 81.7522 271.437 81.0005 268.774 79.4972C266.154 77.9939 264.049 75.9107 262.46 73.2476C260.914 70.5416 260.141 67.4275 260.141 63.9054C260.141 60.3833 260.914 57.2907 262.46 54.6277C264.049 51.9217 266.154 49.817 268.774 48.3137C271.437 46.7674 274.401 45.9942 277.665 45.9942C280.93 45.9942 283.872 46.7674 286.492 48.3137C289.155 49.817 291.26 51.9217 292.806 54.6277C294.395 57.2907 295.19 60.3833 295.19 63.9054ZM287.458 63.9054C287.458 61.7148 287.007 59.8249 286.105 58.2357C285.246 56.6035 284.065 55.3364 282.562 54.4344C281.101 53.5324 279.469 53.0814 277.665 53.0814C275.861 53.0814 274.208 53.5324 272.704 54.4344C271.244 55.3364 270.063 56.6035 269.161 58.2357C268.302 59.8249 267.872 61.7148 267.872 63.9054C267.872 66.053 268.302 67.943 269.161 69.5752C270.063 71.1644 271.244 72.41 272.704 73.312C274.208 74.214 275.861 74.665 277.665 74.665C279.469 74.665 281.101 74.214 282.562 73.312C284.065 72.41 285.246 71.1644 286.105 69.5752C287.007 67.943 287.458 66.053 287.458 63.9054ZM310.332 77.1778C310.332 78.2945 309.946 79.2395 309.172 80.0126C308.442 80.7428 307.519 81.1079 306.402 81.1079C305.328 81.1079 304.426 80.7428 303.696 80.0126C302.966 79.2395 302.601 78.2945 302.601 77.1778V37.3608C302.601 36.244 302.966 35.3205 303.696 34.5903C304.469 33.8172 305.414 33.4306 306.531 33.4306C307.648 33.4306 308.55 33.8172 309.237 34.5903C309.967 35.3205 310.332 36.244 310.332 37.3608V77.1778ZM344.586 46.6385C345.702 46.6385 346.626 47.0251 347.356 47.7982C348.086 48.5284 348.451 49.4519 348.451 50.5687V66.9336C348.451 71.4865 347.184 75.0946 344.65 77.7576C342.116 80.4207 338.465 81.7522 333.697 81.7522C328.929 81.7522 325.278 80.4207 322.744 77.7576C320.253 75.0946 319.007 71.4865 319.007 66.9336V50.5687C319.007 49.4519 319.372 48.5284 320.103 47.7982C320.833 47.0251 321.756 46.6385 322.873 46.6385C323.99 46.6385 324.913 47.0251 325.644 47.7982C326.374 48.5284 326.739 49.4519 326.739 50.5687V66.9336C326.739 69.5537 327.319 71.508 328.478 72.7966C329.638 74.0422 331.378 74.665 333.697 74.665C336.06 74.665 337.821 74.0422 338.98 72.7966C340.14 71.508 340.72 69.5537 340.72 66.9336V50.5687C340.72 49.4519 341.085 48.5284 341.815 47.7982C342.545 47.0251 343.469 46.6385 344.586 46.6385ZM372.156 45.9942C374.604 45.9942 376.73 46.2519 378.534 46.7674C380.381 47.2828 381.798 48.013 382.786 48.9579C383.817 49.8599 384.333 50.9552 384.333 52.2438C384.333 53.1029 384.075 53.919 383.56 54.6921C383.044 55.4223 382.292 55.7874 381.305 55.7874C380.617 55.7874 380.037 55.7015 379.565 55.5297C379.135 55.3149 378.749 55.0572 378.405 54.7565C378.062 54.4559 377.654 54.1767 377.181 53.919C376.752 53.6612 376.086 53.468 375.184 53.3391C374.325 53.1673 373.68 53.0814 373.251 53.0814C371.06 53.0814 369.192 53.5539 367.646 54.4988C366.142 55.4438 364.983 56.7323 364.166 58.3645C363.35 59.9538 362.942 61.8007 362.942 63.9054C362.942 65.9671 363.35 67.8141 364.166 69.4463C365.026 71.0355 366.185 72.3026 367.646 73.2476C369.149 74.1926 370.867 74.665 372.8 74.665C373.874 74.665 374.797 74.6006 375.57 74.4717C376.343 74.3429 376.988 74.1496 377.503 73.8919C378.105 73.5483 378.641 73.1832 379.114 72.7966C379.586 72.41 380.295 72.2167 381.24 72.2167C382.357 72.2167 383.216 72.5818 383.817 73.312C384.419 73.9993 384.719 74.8583 384.719 75.8892C384.719 76.963 384.118 77.9509 382.915 78.8529C381.713 79.712 380.123 80.4207 378.148 80.9791C376.215 81.4945 374.11 81.7522 371.833 81.7522C368.44 81.7522 365.498 80.9791 363.007 79.4328C360.515 77.8435 358.583 75.6959 357.208 72.9899C355.877 70.2839 355.211 67.2557 355.211 63.9054C355.211 60.3833 355.92 57.2907 357.337 54.6277C358.797 51.9217 360.795 49.817 363.329 48.3137C365.906 46.7674 368.848 45.9942 372.156 45.9942ZM397.575 77.1778C397.575 78.2945 397.21 79.2395 396.479 80.0126C395.749 80.7428 394.826 81.1079 393.709 81.1079C392.592 81.1079 391.669 80.7428 390.939 80.0126C390.208 79.2395 389.843 78.2945 389.843 77.1778V50.5687C389.843 49.4519 390.208 48.5284 390.939 47.7982C391.669 47.0251 392.592 46.6385 393.709 46.6385C394.826 46.6385 395.749 47.0251 396.479 47.7982C397.21 48.5284 397.575 49.4519 397.575 50.5687V77.1778ZM393.645 42.4506C392.184 42.4506 391.153 42.2144 390.552 41.7419C389.951 41.2694 389.65 40.4319 389.65 39.2292V38.005C389.65 36.7594 389.972 35.9218 390.616 35.4923C391.304 35.0198 392.335 34.7836 393.709 34.7836C395.212 34.7836 396.265 35.0198 396.866 35.4923C397.467 35.9648 397.768 36.8024 397.768 38.005V39.2292C397.768 40.4748 397.446 41.3339 396.802 41.8063C396.157 42.2359 395.105 42.4506 393.645 42.4506ZM438.959 63.9054C438.959 67.4275 438.165 70.5416 436.575 73.2476C435.029 75.9107 432.924 77.9939 430.261 79.4972C427.641 81.0005 424.699 81.7522 421.435 81.7522C418.17 81.7522 415.206 81.0005 412.543 79.4972C409.923 77.9939 407.819 75.9107 406.229 73.2476C404.683 70.5416 403.91 67.4275 403.91 63.9054C403.91 60.3833 404.683 57.2907 406.229 54.6277C407.819 51.9217 409.923 49.817 412.543 48.3137C415.206 46.7674 418.17 45.9942 421.435 45.9942C424.699 45.9942 427.641 46.7674 430.261 48.3137C432.924 49.817 435.029 51.9217 436.575 54.6277C438.165 57.2907 438.959 60.3833 438.959 63.9054ZM431.228 63.9054C431.228 61.7148 430.777 59.8249 429.875 58.2357C429.016 56.6035 427.835 55.3364 426.331 54.4344C424.871 53.5324 423.239 53.0814 421.435 53.0814C419.631 53.0814 417.977 53.5324 416.474 54.4344C415.013 55.3364 413.832 56.6035 412.93 58.2357C412.071 59.8249 411.641 61.7148 411.641 63.9054C411.641 66.053 412.071 67.943 412.93 69.5752C413.832 71.1644 415.013 72.41 416.474 73.312C417.977 74.214 419.631 74.665 421.435 74.665C423.239 74.665 424.871 74.214 426.331 73.312C427.835 72.41 429.016 71.1644 429.875 69.5752C430.777 67.943 431.228 66.053 431.228 63.9054ZM464.152 45.9942C467.331 45.9942 469.736 46.66 471.368 47.9915C473.044 49.323 474.182 51.1056 474.783 53.3391C475.427 55.5297 475.75 57.978 475.75 60.684V77.1778C475.75 78.2945 475.384 79.2395 474.654 80.0126C473.924 80.7428 473.001 81.1079 471.884 81.1079C470.767 81.1079 469.844 80.7428 469.113 80.0126C468.383 79.2395 468.018 78.2945 468.018 77.1778V60.684C468.018 59.2665 467.825 57.9994 467.438 56.8827C467.095 55.723 466.45 54.7995 465.505 54.1122C464.56 53.425 463.207 53.0814 461.446 53.0814C459.728 53.0814 458.268 53.425 457.065 54.1122C455.905 54.7995 455.003 55.723 454.359 56.8827C453.758 57.9994 453.457 59.2665 453.457 60.684V77.1778C453.457 78.2945 453.092 79.2395 452.362 80.0126C451.632 80.7428 450.708 81.1079 449.591 81.1079C448.475 81.1079 447.551 80.7428 446.821 80.0126C446.091 79.2395 445.726 78.2945 445.726 77.1778V50.5687C445.726 49.4519 446.091 48.5284 446.821 47.7982C447.551 47.0251 448.475 46.6385 449.591 46.6385C450.708 46.6385 451.632 47.0251 452.362 47.7982C453.092 48.5284 453.457 49.4519 453.457 50.5687V53.3391L452.491 53.1458C452.877 52.4156 453.436 51.6425 454.166 50.8264C454.896 49.9673 455.755 49.1727 456.743 48.4425C457.731 47.7123 458.848 47.1325 460.093 46.7029C461.339 46.2305 462.692 45.9942 464.152 45.9942ZM500.342 81.7522C496.691 81.7522 493.513 81.0005 490.807 79.4972C488.144 77.9509 486.082 75.8677 484.622 73.2476C483.204 70.6275 482.495 67.6638 482.495 64.3564C482.495 60.4907 483.269 57.2048 484.815 54.4988C486.404 51.7499 488.466 49.6452 491 48.1848C493.534 46.7244 496.219 45.9942 499.054 45.9942C501.244 45.9942 503.306 46.4452 505.239 47.3472C507.215 48.2492 508.954 49.4948 510.458 51.0841C511.961 52.6304 513.142 54.4344 514.001 56.4961C514.903 58.5578 515.354 60.7484 515.354 63.0678C515.311 64.0987 514.903 64.9363 514.13 65.5806C513.357 66.2249 512.455 66.547 511.424 66.547H486.812L484.879 60.1041H508.525L507.107 61.3927V59.6531C507.021 58.4075 506.57 57.2907 505.754 56.3028C504.981 55.3149 503.993 54.5418 502.791 53.9834C501.631 53.382 500.385 53.0814 499.054 53.0814C497.765 53.0814 496.562 53.2532 495.446 53.5968C494.329 53.9404 493.362 54.5203 492.546 55.3364C491.73 56.1525 491.086 57.2478 490.613 58.6223C490.141 59.9967 489.905 61.7363 489.905 63.841C489.905 66.1604 490.377 68.1362 491.322 69.7684C492.31 71.3577 493.556 72.5818 495.059 73.4409C496.605 74.257 498.238 74.665 499.956 74.665C501.545 74.665 502.812 74.5362 503.757 74.2785C504.702 74.0207 505.454 73.7201 506.012 73.3765C506.613 72.9899 507.15 72.6677 507.623 72.41C508.396 72.0234 509.126 71.8302 509.813 71.8302C510.758 71.8302 511.531 72.1523 512.133 72.7966C512.777 73.4409 513.099 74.1926 513.099 75.0516C513.099 76.2113 512.498 77.2637 511.295 78.2086C510.178 79.1536 508.611 79.9911 506.592 80.7213C504.573 81.4086 502.49 81.7522 500.342 81.7522ZM520.112 75.7603C519.682 75.159 519.489 74.3858 519.532 73.4409C519.575 72.4959 520.133 71.6798 521.207 70.9926C521.894 70.5631 522.625 70.3913 523.398 70.4772C524.171 70.5201 524.922 70.9067 525.653 71.6369C526.898 72.8825 528.208 73.8489 529.583 74.5362C530.957 75.2234 532.675 75.567 534.737 75.567C535.381 75.5241 536.09 75.4382 536.863 75.3093C537.636 75.1375 538.302 74.7939 538.861 74.2785C539.462 73.7201 539.763 72.8825 539.763 71.7657C539.763 70.8208 539.44 70.0691 538.796 69.5107C538.152 68.9523 537.293 68.4799 536.219 68.0933C535.188 67.7067 534.028 67.3416 532.74 66.998C531.408 66.6114 530.034 66.1819 528.616 65.7094C527.242 65.237 525.975 64.6356 524.815 63.9054C523.655 63.1323 522.71 62.1229 521.98 60.8773C521.25 59.6316 520.885 58.0639 520.885 56.174C520.885 54.0263 521.486 52.2009 522.689 50.6975C523.892 49.1942 525.438 48.0345 527.328 47.2184C529.261 46.4023 531.279 45.9942 533.384 45.9942C534.716 45.9942 536.112 46.166 537.572 46.5096C539.032 46.8103 540.428 47.3257 541.76 48.0559C543.091 48.7432 544.208 49.6667 545.11 50.8264C545.583 51.4707 545.862 52.2438 545.948 53.1458C546.034 54.0478 545.626 54.8639 544.724 55.5941C544.079 56.1095 543.328 56.3458 542.469 56.3028C541.61 56.2169 540.901 55.9162 540.342 55.4008C539.612 54.4559 538.624 53.7042 537.379 53.1458C536.176 52.5874 534.78 52.3082 533.191 52.3082C532.547 52.3082 531.838 52.3941 531.065 52.566C530.335 52.6948 529.69 53.017 529.132 53.5324C528.573 54.0049 528.294 54.778 528.294 55.8518C528.294 56.8397 528.616 57.6344 529.261 58.2357C529.905 58.7941 530.764 59.2665 531.838 59.6531C532.955 59.9967 534.136 60.3404 535.381 60.684C536.67 61.0276 537.98 61.4357 539.312 61.9081C540.643 62.3806 541.867 63.0034 542.984 63.7766C544.101 64.5497 545.003 65.5591 545.69 66.8047C546.377 68.0074 546.721 69.5537 546.721 71.4436C546.721 73.6342 546.077 75.5026 544.788 77.0489C543.499 78.5952 541.889 79.7764 539.956 80.5925C538.023 81.3656 536.047 81.7522 534.028 81.7522C531.494 81.7522 528.96 81.3227 526.426 80.4636C523.892 79.5616 521.787 77.9939 520.112 75.7603Z" fill="#121212"/>
<path d="M8.32 153.936H33.92V242H8.32V153.936ZM39.296 153.936H71.808V173.52H39.296V153.936ZM39.296 187.728H65.792V207.312H39.296V187.728ZM39.296 222.416H71.808V242H39.296V222.416ZM115.227 180.432C117.019 178.725 119.11 177.531 121.499 176.848C123.974 176.08 127.003 175.696 130.587 175.696V197.072C126.747 197.072 123.59 197.328 121.115 197.84C118.726 198.352 116.763 199.248 115.227 200.528V180.432ZM86.171 176.72H109.851V242H86.171V176.72ZM169.602 180.432C171.394 178.725 173.485 177.531 175.874 176.848C178.349 176.08 181.378 175.696 184.962 175.696V197.072C181.122 197.072 177.965 197.328 175.49 197.84C173.101 198.352 171.138 199.248 169.602 200.528V180.432ZM140.546 176.72H164.226V242H140.546V176.72ZM230.776 209.488C230.776 205.136 230.733 202.235 230.648 200.784C230.563 198.736 230.307 197.2 229.88 196.176C229.453 195.067 228.771 194.384 227.832 194.128C226.808 193.872 225.4 193.744 223.608 193.744H221.816V175.696H223.608C231.032 175.696 236.835 176.293 241.016 177.488C245.197 178.597 248.312 180.475 250.36 183.12C252.237 185.509 253.432 188.709 253.944 192.72C254.541 196.645 254.84 202.235 254.84 209.488C254.84 216.229 254.627 221.477 254.2 225.232C253.859 228.901 252.963 231.931 251.512 234.32C249.891 236.965 247.459 238.971 244.216 240.336C240.973 241.616 236.493 242.427 230.776 242.768V209.488ZM223.608 243.024C216.184 243.024 210.381 242.469 206.2 241.36C202.019 240.251 198.904 238.373 196.856 235.728C194.979 233.339 193.741 230.181 193.144 226.256C192.632 222.331 192.376 216.741 192.376 209.488C192.376 202.832 192.589 197.627 193.016 193.872C193.443 190.117 194.381 187.003 195.832 184.528C197.368 181.797 199.757 179.792 203 178.512C206.243 177.147 210.723 176.293 216.44 175.952V209.488C216.44 213.84 216.483 216.699 216.568 218.064C216.653 220.112 216.909 221.648 217.336 222.672C217.763 223.696 218.488 224.336 219.512 224.592C220.365 224.848 221.731 224.976 223.608 224.976H225.4V243.024H223.608ZM296.602 180.432C298.394 178.725 300.485 177.531 302.874 176.848C305.349 176.08 308.378 175.696 311.962 175.696V197.072C308.122 197.072 304.965 197.328 302.49 197.84C300.101 198.352 298.138 199.248 296.602 200.528V180.432ZM267.546 176.72H291.226V242H267.546V176.72ZM351.715 207.568L380.387 153.936H408.291L368.483 224.976H351.715V207.568ZM392.547 224.976H374.627L385.635 205.392H392.675L402.275 187.856H417.635V205.392H428.387V224.976H417.635V242H392.547V224.976ZM483.977 197.968C483.977 190.544 483.934 185.68 483.849 183.376C483.678 179.792 483.337 177.275 482.825 175.824C482.228 174.373 481.289 173.477 480.009 173.136C478.814 172.709 476.766 172.496 473.865 172.496C472.585 172.496 471.006 172.581 469.129 172.752V153.04C469.641 152.955 470.409 152.912 471.433 152.912H473.865C482.825 152.912 489.737 153.68 494.601 155.216C499.465 156.667 503.049 159.099 505.353 162.512C507.486 165.669 508.809 169.808 509.321 174.928C509.833 180.048 510.089 187.728 510.089 197.968C510.089 207.184 509.876 214.181 509.449 218.96C509.108 223.739 508.169 227.749 506.633 230.992C504.926 234.576 502.281 237.307 498.697 239.184C495.198 240.976 490.292 242.128 483.977 242.64V197.968ZM473.865 243.024C464.99 243.024 458.078 242.299 453.129 240.848C448.265 239.312 444.681 236.795 442.377 233.296C440.244 230.139 438.921 226.043 438.409 221.008C437.897 215.973 437.641 208.293 437.641 197.968C437.641 188.752 437.812 181.755 438.153 176.976C438.58 172.197 439.561 168.187 441.097 164.944C442.804 161.36 445.406 158.672 448.905 156.88C452.489 155.003 457.438 153.808 463.753 153.296V197.968C463.753 205.307 463.796 210.128 463.881 212.432C464.052 215.845 464.436 218.405 465.033 220.112C465.63 221.563 466.526 222.501 467.721 222.928C468.916 223.269 470.964 223.44 473.865 223.44H476.425C477.022 223.44 477.748 223.355 478.601 223.184V242.896C478.089 242.981 477.321 243.024 476.297 243.024H473.865ZM519.965 207.568L548.637 153.936H576.541L536.733 224.976H519.965V207.568ZM560.797 224.976H542.877L553.885 205.392H560.925L570.525 187.856H585.885V205.392H596.637V224.976H585.885V242H560.797V224.976Z" fill="#121212"/>
<path fill-rule="evenodd" clip-rule="evenodd" d="M115.966 0.572513C94.6574 5.78038 78.8441 24.9998 78.8441 47.9127C78.8441 50.9918 79.1297 54.0042 79.6758 56.9249C78.3882 56.6654 77.056 56.5293 75.692 56.5293C64.6152 56.5293 55.6357 65.5087 55.6357 76.5855C55.6357 87.6623 64.6152 96.6417 75.692 96.6417C76.7644 96.6417 77.8172 96.5576 78.8441 96.3955V96.6447H92.4404V54.9926C92.4404 49.406 97.0415 44.8772 102.717 44.8772C108.393 44.8772 112.994 49.406 112.994 54.9926V96.6447H172.329V96.6425C172.385 96.6428 172.44 96.6429 172.495 96.6429C182.114 96.6429 190.761 92.4839 196.737 85.866H159.393C135.409 85.866 115.966 66.4228 115.966 42.4385V0.572513ZM205.122 65.3125C205.14 64.8736 205.149 64.4325 205.149 63.9894C205.149 46.2647 191.026 31.8385 173.42 31.3486C167.622 15.3052 153.643 3.17605 136.519 -0.00012207V19.7808L151.516 19.8962C157.192 19.9399 161.757 24.5762 161.714 30.2517C161.67 35.9272 157.034 40.4928 151.358 40.4491L136.519 40.335V42.4385C136.519 55.0714 146.76 65.3125 159.393 65.3125H205.122ZM112.662 30.8463C112.662 36.2526 108.21 40.6353 102.717 40.6353C97.2246 40.6353 92.7719 36.2526 92.7719 30.8463C92.7719 25.44 97.2246 21.0573 102.717 21.0573C108.21 21.0573 112.662 25.44 112.662 30.8463Z" fill="#4587EA"/>
<circle cx="62.2713" cy="43.7589" r="11.2713" fill="#4587EA"/>
</svg>
